<?xml version="1.0" standalone="no"?>
<!DOCTYPE svg PUBLIC "-//W3C//DTD SVG 20010904//EN"
 "http://www.w3.org/TR/2001/REC-SVG-20010904/DTD/svg10.dtd">
<svg version="1.0" xmlns="http://www.w3.org/2000/svg"
 width="911.000000pt" height="761.000000pt" viewBox="0 0 911.000000 761.000000"
 preserveAspectRatio="xMidYMid meet">

<g transform="translate(0.000000,761.000000) scale(0.100000,-0.100000)"
fill="#000000" stroke="none">
<path d="M4380 6300 c-1203 -94 -2166 -1012 -2316 -2210 -16 -132 -18 -443 -4
-575 107 -964 765 -1788 1683 -2104 541 -187 1136 -183 1672 11 719 259 1294
849 1534 1573 91 274 126 494 126 795 0 272 -25 452 -96 700 -206 718 -753
1332 -1442 1619 -208 86 -434 148 -647 175 -150 19 -378 26 -510 16z m470 -81
c442 -50 889 -239 1245 -523 179 -144 374 -359 508 -561 280 -422 423 -932
403 -1433 -25 -629 -274 -1200 -716 -1642 -196 -196 -396 -338 -655 -465 -257
-127 -497 -199 -785 -237 -140 -18 -470 -15 -615 6 -522 74 -989 300 -1364
661 -382 368 -627 828 -721 1356 -31 173 -39 531 -16 709 64 487 256 921 570
1287 536 625 1329 936 2146 842z"/>
<path d="M4320 5989 c-306 -35 -661 -157 -919 -318 -674 -418 -1079 -1174
-1048 -1956 19 -468 191 -930 485 -1300 156 -196 469 -475 533 -475 34 0 32
38 -4 88 -109 149 -154 355 -112 515 16 63 68 171 87 183 15 9 152 -134 210
-219 54 -79 68 -117 68 -182 0 -68 -17 -103 -81 -172 -39 -42 -49 -59 -49 -87
0 -48 16 -79 52 -100 18 -11 37 -37 49 -65 36 -82 102 -133 191 -147 26 -4 56
-18 76 -35 18 -16 34 -29 35 -30 11 -5 280 -21 342 -20 420 7 805 4 900 -7
224 -26 231 -26 238 -9 3 9 -7 40 -22 69 -16 29 -41 87 -57 128 -26 69 -28 85
-27 210 0 87 5 153 15 185 l14 49 120 -2 c136 -3 228 15 340 69 85 40 136 92
164 165 21 55 21 65 11 144 -13 106 -4 143 49 194 42 40 51 74 25 96 -14 12
-14 15 0 30 20 22 19 69 -2 111 -24 49 -29 131 -9 151 9 9 60 31 113 49 127
42 158 70 151 137 -3 30 -48 148 -122 319 -104 244 -116 278 -116 331 0 62
-16 116 -74 250 l-36 84 20 25 c22 29 26 74 9 122 -10 29 -9 34 10 47 39 28
28 67 -34 120 -31 26 -76 74 -100 107 l-45 60 25 33 c34 44 41 84 21 122 -32
61 -88 68 -176 21 -57 -30 -59 -30 -84 -13 -27 17 -27 17 -8 38 24 26 52 80
52 99 0 31 -80 36 -173 12 -78 -20 -78 -20 -60 22 10 24 13 55 10 86 -4 47 -2
52 53 121 32 39 99 111 149 161 50 49 91 93 91 97 0 5 -60 37 -133 73 -224
109 -495 187 -749 214 -112 13 -358 12 -468 0z m468 -70 c139 -15 319 -55 455
-100 118 -39 317 -126 317 -138 0 -4 -21 -27 -46 -51 -35 -35 -131 -145 -194
-223 -3 -4 -44 8 -91 27 -95 39 -222 76 -349 103 -69 15 -130 18 -320 18 -206
-1 -248 -4 -340 -23 -555 -120 -995 -457 -1240 -947 -79 -158 -128 -300 -162
-467 -20 -98 -23 -143 -23 -333 0 -189 4 -236 23 -333 50 -247 159 -502 292
-682 38 -52 77 -104 85 -116 14 -18 13 -29 -5 -99 -33 -127 -21 -276 30 -391
11 -26 19 -49 17 -51 -7 -7 -246 228 -311 306 -223 267 -393 618 -461 949
-217 1056 396 2111 1426 2456 115 38 311 82 429 95 110 12 356 13 468 0z m32
-444 c159 -26 440 -111 440 -133 0 -4 -19 -19 -43 -34 l-43 -27 -101 34 c-189
64 -283 79 -508 79 -224 0 -318 -15 -515 -80 -494 -163 -888 -573 -1034 -1077
-137 -473 -47 -1005 234 -1381 27 -37 50 -71 50 -77 0 -6 -11 -26 -24 -45
l-23 -35 -33 38 c-141 160 -275 448 -330 708 -27 130 -38 399 -21 545 88 749
683 1369 1426 1484 125 19 406 20 525 1z m-1 -180 c83 -16 230 -59 263 -76 15
-8 13 -16 -20 -79 -20 -38 -40 -70 -44 -70 -5 0 -8 20 -8 45 0 37 -3 45 -18
45 -58 0 -194 -137 -242 -245 l-28 -59 -7 42 c-4 23 -11 44 -16 48 -40 24
-218 -182 -219 -253 0 -26 -18 -12 -24 18 l-6 30 -41 -23 c-81 -46 -157 -147
-184 -248 l-13 -45 -12 33 c-7 17 -16 32 -21 32 -5 0 -42 -33 -83 -72 -58 -58
-78 -85 -95 -131 -12 -32 -21 -69 -21 -82 0 -33 -11 -31 -32 5 -9 17 -21 30
-27 30 -19 0 -102 -106 -134 -169 -24 -49 -32 -82 -37 -140 l-5 -76 -30 45
c-16 25 -31 47 -32 49 -9 12 -78 -71 -104 -124 -35 -72 -44 -132 -31 -203 l10
-54 -44 43 c-50 49 -57 47 -101 -28 -38 -65 -64 -160 -64 -231 l0 -62 -26 20
c-14 11 -30 20 -34 20 -12 0 -54 -85 -70 -140 -7 -25 -15 -49 -19 -53 -18 -21
-121 259 -152 415 -32 160 -32 427 0 575 63 290 189 521 401 734 262 262 570
405 971 453 72 9 318 -3 399 -19z m511 3 c0 -39 -47 -126 -96 -178 -64 -68
-198 -158 -202 -136 -5 25 63 157 108 208 42 49 152 128 176 128 8 0 14 -10
14 -22z m188 -149 c-39 -69 -115 -119 -242 -158 -72 -22 -116 -27 -116 -12 0
17 117 128 162 155 49 28 136 54 186 55 l33 1 -23 -41z m-539 -121 c1 -70 -11
-92 -109 -195 -50 -52 -90 -98 -90 -104 0 -6 -4 -7 -10 -4 -17 10 -11 112 10
171 23 67 79 143 140 190 l45 35 6 -23 c4 -13 7 -44 8 -70z m783 5 c25 -22 23
-33 -12 -73 -16 -19 -29 -43 -30 -54 0 -26 57 -101 134 -174 36 -34 66 -66 66
-72 0 -18 -45 -50 -85 -60 -400 -100 -655 -227 -835 -417 -97 -102 -216 -260
-344 -455 -53 -80 -107 -160 -121 -177 l-26 -30 -44 45 -45 44 41 68 c194 317
420 601 727 914 254 257 490 458 540 458 8 0 24 -7 34 -17z m-242 -53 c0 -3
-34 -35 -76 -70 -118 -101 -395 -389 -539 -560 -154 -185 -302 -383 -432 -577
l-95 -143 -42 0 c-154 -1 -256 -175 -212 -364 19 -79 17 -83 -61 -167 -25 -27
-40 -50 -34 -53 16 -10 64 19 104 63 l36 40 22 -27 21 -27 -72 -67 c-59 -56
-175 -141 -266 -194 -38 -23 -4 -25 60 -4 70 23 155 74 254 152 35 28 64 49
66 47 2 -2 12 -20 21 -39 14 -26 19 -62 21 -145 1 -65 10 -150 23 -208 49
-228 48 -282 -5 -306 -15 -7 -88 -11 -187 -12 -176 -1 -291 -20 -311 -51 -17
-27 0 -32 61 -18 37 8 132 14 261 14 l204 1 28 31 c43 49 44 88 11 284 -51
303 -51 309 -3 284 15 -7 32 -14 37 -14 6 0 22 -46 38 -103 15 -56 39 -142 53
-192 31 -108 43 -282 25 -338 -24 -71 -91 -86 -308 -67 -179 16 -360 16 -467
1 -96 -14 -105 -8 -88 52 32 110 35 150 18 209 -19 67 -89 174 -181 278 l-66
74 60 12 c140 29 236 98 287 207 34 74 32 87 -13 87 l-38 1 30 21 c57 41 108
102 136 162 37 79 37 96 1 96 -46 0 -44 11 8 37 79 39 145 123 174 220 6 19 3
22 -31 25 l-38 3 45 27 c59 34 130 111 159 171 26 53 23 74 -11 79 -17 2 -7 9
39 26 78 29 150 85 190 148 48 76 50 91 12 99 -31 7 -30 8 39 30 86 27 160 79
201 142 39 58 39 69 -1 78 -31 7 -28 8 42 26 104 26 190 71 238 123 50 54 62
91 37 110 -17 12 -15 14 16 20 98 18 229 120 273 211 17 34 30 44 90 70 l71
31 32 -21 c18 -11 33 -22 33 -25z m-290 -67 c0 -4 -12 -24 -26 -44 -31 -45
-111 -102 -174 -124 -56 -20 -190 -32 -190 -17 0 15 79 93 131 129 25 17 67
38 95 46 50 16 164 23 164 10z m-542 -102 c5 -89 -13 -125 -120 -233 l-81 -83
6 89 c8 110 43 191 116 267 62 64 74 59 79 -40z m235 -137 c20 -4 37 -12 37
-19 0 -21 -84 -102 -130 -125 -23 -12 -72 -28 -109 -36 -68 -14 -171 -19 -171
-8 0 15 91 112 129 139 67 46 155 63 244 49z m-499 -20 c13 -34 5 -140 -14
-181 -10 -24 -51 -73 -90 -111 -66 -63 -71 -66 -76 -45 -8 30 3 121 22 184 10
33 32 67 70 109 58 62 77 72 88 44z m1456 -138 c0 -36 -124 -106 -187 -106
-19 0 -23 5 -23 29 0 36 6 40 95 67 85 26 115 29 115 10z m-283 -62 c9 -24
-28 -93 -70 -129 -54 -46 -165 -69 -152 -32 3 7 6 32 8 57 3 42 6 46 50 69 39
19 121 47 150 50 4 1 10 -6 14 -15z m333 -175 c40 -101 54 -149 60 -212 9 -96
36 -171 157 -435 95 -208 99 -232 45 -269 -19 -12 -76 -39 -129 -59 -84 -33
-97 -41 -109 -70 -12 -29 -12 -39 1 -76 21 -61 20 -63 -30 -83 -25 -9 -56 -30
-68 -47 -32 -43 -82 -71 -118 -66 -35 5 -49 -8 -18 -17 40 -13 90 5 138 50 50
47 92 68 116 59 23 -9 18 -42 -10 -60 l-26 -17 26 -27 c30 -31 26 -53 -15 -70
-24 -10 -36 -8 -76 9 -26 12 -49 19 -52 17 -9 -10 10 -25 46 -36 20 -6 42 -13
48 -15 8 -2 4 -20 -13 -52 -22 -45 -24 -55 -17 -145 6 -87 4 -101 -15 -141
-52 -107 -216 -177 -417 -177 -132 0 -228 25 -369 95 -150 75 -274 166 -432
319 l-133 128 6 54 c5 37 3 54 -5 54 -6 0 -11 -4 -11 -9 0 -19 -52 -71 -71
-71 -41 0 -76 29 -109 92 -18 35 -51 83 -72 107 -21 24 -50 69 -65 100 -25 49
-28 67 -28 151 0 78 4 102 22 136 91 171 279 118 327 -93 8 -38 23 -73 32 -80
22 -16 73 -17 110 -3 25 10 31 7 64 -29 43 -47 74 -61 133 -61 86 0 135 60
158 195 10 56 19 79 49 115 67 80 84 125 85 215 0 69 -4 88 -28 135 -28 53
-28 55 -11 91 12 29 24 39 48 43 65 12 149 82 195 163 3 7 31 17 61 23 85 16
158 56 193 106 28 40 35 44 71 44 56 0 106 15 146 45 23 17 37 22 45 15 7 -6
36 -69 65 -141z m-1755 38 c0 -70 -4 -90 -29 -139 -15 -31 -48 -75 -72 -99
-39 -39 -44 -41 -51 -23 -4 10 -8 55 -8 99 1 68 5 90 28 138 32 64 104 134
121 117 6 -6 11 -48 11 -93z m462 87 c13 -4 23 -10 23 -14 0 -19 -88 -104
-131 -126 -59 -30 -158 -54 -222 -54 l-48 0 17 32 c22 43 102 126 139 146 59
31 139 36 222 16z m661 -134 c-7 -97 -81 -182 -169 -196 -25 -4 -41 -13 -44
-24 -13 -42 -46 -70 -81 -70 -42 0 -74 15 -74 35 0 26 181 204 264 260 45 30
87 55 95 55 10 0 12 -14 9 -60z m-1359 -149 c19 -58 13 -140 -14 -199 -25 -53
-91 -142 -105 -142 -5 0 -16 20 -26 45 -34 90 0 231 76 319 37 42 48 38 69
-23z m453 31 c16 -7 16 -9 2 -37 -48 -92 -118 -145 -225 -169 -77 -18 -159
-21 -159 -6 0 17 133 151 175 175 54 32 168 52 207 37z m528 -252 c24 -24 27
-97 5 -140 -8 -15 -39 -49 -69 -75 -58 -49 -88 -107 -67 -128 7 -7 28 8 73 55
35 36 75 74 89 84 39 29 49 56 49 129 0 49 4 67 15 71 37 15 75 -59 75 -144 0
-70 -24 -121 -94 -198 l-54 -59 1 -66 c1 -84 -15 -123 -59 -144 -51 -24 -89
-7 -137 60 -19 26 -22 46 -25 165 -2 74 -4 149 -5 167 -1 37 47 120 111 193
48 55 62 60 92 30z m-1174 -143 c15 -70 -33 -201 -95 -261 l-28 -27 -17 44
c-49 129 -36 273 33 351 15 17 18 16 58 -30 23 -26 45 -61 49 -77z m432 108
c8 -7 -42 -88 -75 -121 -61 -61 -192 -110 -278 -102 l-35 3 35 52 c47 69 96
118 146 144 57 28 185 43 207 24z m-158 -281 c0 -44 -78 -137 -142 -170 -31
-16 -79 -28 -130 -34 -44 -5 -89 -12 -99 -15 -66 -21 55 145 136 188 79 41
235 62 235 31z m648 -78 c-2 -56 -9 -82 -24 -103 -28 -36 -63 -37 -83 -1 -14
24 -14 30 3 65 30 63 87 136 98 125 6 -6 9 -44 6 -86z m-1131 -25 c27 -69 23
-164 -9 -226 -14 -27 -37 -60 -51 -73 l-25 -23 -32 68 c-26 54 -32 80 -32 129
0 61 27 155 58 201 l16 25 29 -28 c16 -15 37 -48 46 -73z m333 -171 c0 -18
-48 -106 -76 -139 -45 -54 -184 -111 -271 -111 -39 0 -42 15 -13 78 30 67 57
100 105 127 68 40 255 73 255 45z m-528 -87 c56 -60 72 -98 73 -178 0 -60 -5
-81 -33 -138 -18 -37 -38 -67 -44 -67 -27 0 -94 114 -104 177 -11 72 32 243
60 243 7 0 28 -17 48 -37z m403 -205 c-33 -111 -143 -200 -264 -215 -82 -9
-85 -4 -50 74 17 37 41 79 52 91 43 46 111 69 215 71 51 1 53 0 47 -21z m1135
-521 c105 -74 240 -147 326 -174 l56 -17 -6 -36 c-3 -19 -15 -69 -27 -110 -34
-118 -31 -230 11 -353 18 -54 30 -100 27 -103 -3 -4 -48 2 -99 12 -75 15 -134
19 -303 18 -115 -1 -257 -7 -315 -12 -58 -6 -109 -7 -113 -3 -7 7 14 109 27
130 3 5 19 11 36 14 101 21 141 127 90 244 -21 49 -21 53 -6 104 30 99 23 154
-51 432 -25 92 -42 175 -39 184 5 11 43 -20 149 -123 78 -77 185 -169 237
-207z m-1274 -375 c18 -11 -5 -112 -26 -112 -43 0 -57 77 -18 104 25 18 29 19
44 8z m621 -27 c6 -2 14 -23 18 -47 14 -82 68 -154 133 -179 58 -22 -10 -138
-93 -160 -43 -12 -135 -5 -166 12 -10 5 -31 33 -46 62 -25 47 -28 62 -28 152
0 119 14 162 53 167 28 4 108 -1 129 -7z m-251 -42 c-19 -134 -19 -177 3 -238
12 -33 23 -67 24 -75 3 -24 -53 -24 -91 0 -51 32 -65 77 -66 211 -1 141 3 149
82 149 l55 0 -7 -47z m564 28 c11 -22 14 -100 4 -126 -9 -21 -56 -45 -92 -45
-45 0 -94 39 -116 92 -28 68 -19 81 52 74 39 -4 66 -1 87 8 41 20 53 19 65 -3z
m-757 -134 l2 -127 -33 0 c-25 0 -43 9 -68 34 -33 33 -34 37 -34 110 0 96 17
119 86 114 l45 -3 2 -128z"/>
<path d="M4597 5873 c-3 -5 -8 -48 -11 -98 -4 -49 -10 -105 -13 -122 -5 -30
-3 -33 19 -33 25 0 25 2 37 120 7 66 9 124 6 130 -7 12 -32 13 -38 3z"/>
<path d="M4217 5843 c-4 -7 22 -155 38 -220 3 -14 13 -23 25 -23 25 0 25 -2
-1 137 -18 95 -24 113 -40 113 -10 0 -20 -3 -22 -7z"/>
<path d="M4981 5808 c-5 -13 -25 -63 -46 -112 -36 -87 -39 -116 -11 -116 16 0
110 225 101 241 -11 17 -35 9 -44 -13z"/>
<path d="M3852 5751 c-20 -12 92 -234 115 -229 9 2 18 8 20 13 4 13 -99 219
-112 222 -5 2 -16 -1 -23 -6z"/>
<path d="M5240 5630 c-78 -96 -88 -120 -52 -120 18 0 167 181 167 202 0 7 -7
14 -17 16 -10 2 -44 -31 -98 -98z"/>
<path d="M3495 5580 c-9 -15 155 -202 173 -195 7 3 16 5 18 5 16 0 -6 33 -73
108 -74 84 -104 105 -118 82z"/>
<path d="M3177 5353 c-14 -14 -4 -24 93 -93 73 -52 106 -70 120 -65 11 4 20
10 20 15 0 11 -197 150 -214 150 -7 0 -16 -3 -19 -7z"/>
<path d="M2903 5054 c-8 -22 0 -27 125 -75 95 -35 115 -40 123 -28 5 8 9 17 9
20 0 6 -228 99 -243 99 -4 0 -10 -7 -14 -16z"/>
<path d="M2689 4708 c-7 -13 -6 -20 3 -23 17 -6 213 -35 238 -35 20 0 38 25
27 36 -3 3 -62 13 -132 23 -122 17 -127 17 -136 -1z"/>
<path d="M2660 4358 c-95 -9 -136 -26 -114 -48 7 -7 51 -7 140 2 122 12 129
14 132 36 4 25 1 26 -158 10z"/>
<path d="M2598 3987 c-105 -38 -118 -45 -118 -66 0 -14 5 -21 13 -19 6 3 64
22 127 43 112 37 130 47 130 73 0 19 -26 14 -152 -31z"/>
<path d="M2605 3614 c-69 -46 -111 -81 -113 -94 -6 -34 23 -23 138 53 83 54
109 77 108 91 -2 11 -7 21 -13 22 -5 1 -59 -31 -120 -72z"/>
<path d="M2678 3243 c-57 -64 -88 -106 -88 -121 0 -38 20 -24 113 78 81 89
108 140 74 140 -6 0 -51 -44 -99 -97z"/>
<path d="M2825 2884 c-63 -121 -74 -164 -42 -164 7 0 41 56 76 124 45 89 61
129 56 145 -3 11 -10 21 -15 21 -4 0 -38 -57 -75 -126z"/>
<path d="M3057 2723 c-2 -4 -19 -72 -37 -150 -28 -119 -31 -145 -20 -158 7 -9
17 -12 21 -8 9 9 69 256 69 283 0 20 -26 45 -33 33z"/>
<path d="M5690 4141 c-44 -14 -93 -42 -165 -95 -38 -29 -80 -58 -92 -65 -23
-12 -31 -31 -14 -31 6 0 47 25 91 56 80 54 193 114 217 114 6 0 26 -12 43 -26
35 -30 48 -26 32 11 -17 38 -60 51 -112 36z"/>
<path d="M5751 4008 c-7 -19 -20 -27 -47 -33 -49 -9 -106 -38 -172 -87 -30
-22 -82 -53 -115 -68 -55 -25 -59 -29 -37 -34 40 -9 227 -26 290 -26 73 0 92
7 82 28 -4 10 -6 50 -4 91 3 63 7 74 24 79 15 4 18 10 13 31 -10 40 -23 47
-34 19z m-36 -148 l0 -55 -80 -3 c-44 -2 -96 0 -115 3 l-34 7 24 19 c43 33
163 90 185 87 17 -3 20 -10 20 -58z"/>
<path d="M4283 3506 c-54 -45 -77 -151 -52 -239 13 -46 59 -100 100 -117 22
-9 37 -26 50 -57 17 -39 22 -44 46 -41 20 2 29 9 31 26 4 24 -7 29 -26 10 -14
-14 -28 -3 -34 26 -1 11 -28 39 -58 62 -33 25 -62 57 -72 80 -52 116 27 298
98 227 14 -14 16 -32 12 -110 -4 -78 -3 -95 12 -108 17 -15 50 -21 50 -8 0 4
-9 16 -20 28 -18 19 -19 24 -5 75 20 76 19 105 -7 135 -35 39 -86 44 -125 11z"/>
<path d="M5831 3447 c-19 -109 -10 -147 35 -147 26 0 223 90 224 103 0 15 -27
6 -123 -40 -91 -43 -99 -46 -114 -30 -15 14 -15 24 -5 80 14 77 15 97 3 97 -5
0 -14 -28 -20 -63z"/>
</g>
</svg>
